<mxfile host="app.diagrams.net" modified="2023-04-26T08:12:44.685Z" agent="Mozilla/5.0 (Macintosh; Intel Mac OS X 10_15_7) AppleWebKit/537.36 (KHTML, like Gecko) Chrome/112.0.0.0 Safari/537.36" version="21.2.2" etag="zK74g5gqbDxSl-Doj120" type="github">
  <diagram name="第 1 页" id="-3D5_oce5GZlV3RbR9Zp">
    <mxGraphModel>
      <root>
        <mxCell id="0" />
        <mxCell id="1" parent="0" />
      </root>
    </mxGraphModel>
  </diagram>
</mxfile>
